HIERARCHY
ROOT Hips
{
    OFFSET 13.71989917755127 92.31851959228516 -17.96615219116211
    CHANNELS 6 Xposition Yposition Zposition Zrotation Xrotation Yrotation
    JOINT RightUpLeg
    {
        OFFSET -13.71989917755127 0.0 0.0
        CHANNELS 3 Zrotation Xrotation Yrotation
        JOINT RightLeg
        {
            OFFSET 0.0 -47.40314483642578 0.0
            CHANNELS 3 Zrotation Xrotation Yrotation
            JOINT RightFoot
            {
                OFFSET 0.0 -44.915374755859375 0.0
                CHANNELS 3 Zrotation Xrotation Yrotation
                End Site
                {
                    OFFSET 0.0 0.0 17.96615219116211
                }
            }
        }
    }
    JOINT LeftUpLeg
    {
        OFFSET 13.71989917755127 0.0 0.0
        CHANNELS 3 Zrotation Xrotation Yrotation
        JOINT LeftLeg
        {
            OFFSET 0.0 -47.40314483642578 0.0
            CHANNELS 3 Zrotation Xrotation Yrotation
            JOINT LeftFoot
            {
                OFFSET 0.0 -44.915374755859375 0.0
                CHANNELS 3 Zrotation Xrotation Yrotation
                End Site
                {
                    OFFSET 0.0 0.0 17.96615219116211
                }
            }
        }
    }
    JOINT Spine
    {
        OFFSET 0.0 25.583250045776367 0.0
        CHANNELS 3 Zrotation Xrotation Yrotation
        JOINT Spine3
        {
            OFFSET 0.0 25.67367172241211 0.0
            CHANNELS 3 Zrotation Xrotation Yrotation
            JOINT Neck
            {
                OFFSET 0.0 10.974285125732422 0.0
                CHANNELS 3 Zrotation Xrotation Yrotation
                End Site
                {
                    OFFSET 0.0 4.389713764190674 0.0
                }
            }
            JOINT LeftArm
            {
                OFFSET 15.100637435913086 0.0 0.0
                CHANNELS 3 Zrotation Xrotation Yrotation
                JOINT LeftForeArm
                {
                    OFFSET 29.285179138183594 0.0 0.0
                    CHANNELS 3 Zrotation Xrotation Yrotation
                    JOINT LeftHand
                    {
                        OFFSET 24.885177612304688 0.0 0.0
                        CHANNELS 3 Zrotation Xrotation Yrotation
                        End Site
                        {
                            OFFSET 9.954071044921875 0.0 0.0
                        }
                    }
                }
            }
            JOINT RightArm
            {
                OFFSET -15.100637435913086 0.0 0.0
                CHANNELS 3 Zrotation Xrotation Yrotation
                JOINT RightForeArm
                {
                    OFFSET -29.285179138183594 0.0 0.0
                    CHANNELS 3 Zrotation Xrotation Yrotation
                    JOINT RightHand
                    {
                        OFFSET -24.885177612304688 0.0 0.0
                        CHANNELS 3 Zrotation Xrotation Yrotation
                        End Site
                        {
                            OFFSET -9.954071044921875 0.0 0.0
                        }
                    }
                }
            }
        }
    }
}
MOTION
Frames: 10
Frame Time: 0.03333333333333333
0.0006719970842823386 93.25652313232422 -0.00047124159755185246 18.682337198251595 -3.3107823193262806 75.90268303853385 6.942594661781944 5.978317583477324 -0.2900788158132614 2.1165523203144385 19.917267043949337 -1.6406958452120008 -1.9878466759146976e-15 -9.56921091960093e-32 5.516274525663286e-15 1.1768860226080242 16.253246499420868 0.8564676275236933 -6.94733483520694 38.245450401634734 6.13681515262487 -6.3611093629270335e-15 0.0 0.0 9.982807922096198 26.9929999551149 -2.621797671959518 -2.989729212239228e-07 -7.16877730137437e-07 -1.6093360974432958 -3.9856210562102383 -7.452641650242095 178.09060810871406 121.0545653788859 -19.82958194198188 -159.01440608482062 2.792247064070541e-06 -4.222538848423794e-06 29.82859685666293 4.770832022195274e-15 3.1805546814635164e-15 -3.1805546814635164e-15 -122.6077864522414 -6.93908648877361 175.82355647401985 -3.6006092843130465e-06 1.234486447329654e-05 -11.19674619214111 -3.1805546814635176e-15 0.0 0.0
0.000789200363215059 93.25641632080078 -0.0004364119376987219 18.78134667491672 -2.9255500699646957 75.65939815902424 5.971534638580251 7.869263730990151 -0.2540271173476012 1.949636783659251 18.826951035207852 -1.2037513929971373 1.987846675914698e-15 2.5000641141299724e-32 1.441188840038156e-15 1.67235347814891 11.90066177533559 0.5190888286902935 -5.270389426635813 44.93594248759638 5.448753306426881 -6.3611093629270335e-15 -4.770832022195275e-15 -4.770832022195275e-15 9.678521449422748 26.99597363952188 -2.5098530166105255 -1.0793966948120045e-07 6.296313186145852e-07 0.25173590499091436 -4.682338231890594 -7.659033958408638 175.7522058006902 120.53631631564231 -26.459464622869056 -161.15953075193775 -6.404313002091417e-06 4.900300117689066e-06 25.13351955260962 -6.3611093629270335e-15 -1.5902773407317582e-15 -3.1805546814635168e-15 -124.5757048133521 -8.222694551550022 172.96463680471012 -3.38636193924617e-07 1.1489483859457508e-06 -15.26590813853868 0.0 0.0 -6.3611093629270335e-15
0.0007215318619273603 93.25630187988281 -0.0004651265044230968 18.43747193108051 -2.481876063954144 73.98559831914588 5.17298592953518 9.199384570683987 -0.22266650884489128 1.4808852262618644 18.427510299852994 -0.8880733884245626 -3.5604361349506165e-32 -1.3914926731402886e-15 -2.9320738469741797e-15 1.0300576949733227 7.511540409487167 0.36983789048675664 -3.2037082893560833 50.089656473876076 4.568853676152319 -9.54166404439055e-15 -3.1805546814635176e-15 4.770832022195275e-15 8.262336963035432 26.42029176595197 -1.9827998159995681 5.1268364959391063e-08 1.2169606447273346e-07 3.0012984421822377 -4.282130233436953 -7.106524650539934 174.82211890488992 118.03349899396926 -27.171092761449795 -165.44342695518193 -5.820692437900631e-07 -4.073562228408465e-06 22.690692769967768 1.5902773407317584e-15 1.5902773407317584e-15 -3.1805546814635168e-15 -125.5109998858883 -5.681680429104868 169.91480343295027 6.759484194406393e-07 -3.2447720167330003e-06 -20.13918409741004 0.0 6.3611093629270335e-15 0.0
0.0007196918595582247 93.25630950927734 -0.000522306771017611 18.558293334586082 -1.6715590542100478 72.34656797128463 3.6437180011633092 10.188052042901594 -0.08856475784216436 1.609482688706068 18.67677420415016 -0.6600374966092607 3.975693351829395e-16 -1.5902773407317584e-15 -4.857800314266543e-15 0.4372954753130144 3.145588722709719 0.15666662963063452 -0.3713997773471722 54.26002849121459 2.504829609728422 -3.1805546814635168e-15 -3.1805546814635168e-15 -7.951386703658792e-16 6.273526014069927 26.30440116562183 -1.3764525323192103 -5.860545544790045e-07 -4.465885825937354e-07 5.041056505039228 -3.5502239845383063 -7.2489350664649095 170.89530344455048 117.66006201136508 -31.22418114327629 -165.9965634729524 5.550340853245232e-06 -7.941215725251365e-06 19.70125186193101 3.1805546814635164e-15 8.827812596100317e-32 3.1805546814635164e-15 -126.4718070352914 -5.112357800243543 164.22726037033235 1.2497248938417636e-06 1.0268447596127628e-06 -24.74335026652287 3.1805546814635168e-15 6.3611093629270335e-15 -1.7655625192200634e-31
0.000880952225998044 93.25625610351562 -0.0004923556698486209 18.053120235836296 -0.8507269195340882 71.1151829498164 2.3823558479605205 10.820837951827302 0.07232089203352497 1.372300751708975 17.943843539532097 -0.29354441525781066 -2.484808344893373e-17 -2.484808344893373e-17 -7.485485138991285e-15 0.35290216096271 -0.9283663995827643 -0.03159493184914739 -1.0723650179146609 56.83865079667388 2.930238436659313 6.3611093629270335e-15 3.1805546814635168e-15 7.95138670365879e-16 4.920459685405201 24.971791410822668 -0.8981088405563393 2.54569637403831e-07 1.1091585474965523e-06 7.590222233311392 -3.7234352342684316 -5.950629233966738 171.6244798579209 116.92795417376813 -36.70676219323182 -169.60218042687657 -5.169932101942867e-07 -6.393821870802561e-06 16.79178735446355 -9.54166404439055e-15 -2.648343778830095e-31 3.1805546814635168e-15 -127.35159748630242 -1.894713947540434 160.72657924571712 9.493182783752841e-07 3.222783379109929e-06 -30.08409853904319 3.531125038440127e-31 -6.3611093629270335e-15 6.3611093629270335e-15
0.0010341620072722435 93.25627899169922 -0.0005081252311356366 17.571490186112214 -0.5302363193908358 70.2254240938476 1.200474954924836 11.634247597642752 0.2471893278114639 1.8446884500146783 16.427830635096182 -0.17063699436664956 7.205944200190782e-16 -1.2424041724466884e-17 -3.022148149476565e-15 0.1992085286563025 -3.2763294431686067 -0.11976525586888927 2.8451288764017804 56.59012086550452 -0.5088849605410356 0.0 0.0 7.951386703658792e-16 3.7863763278673117 23.892509444805885 -0.5405236924009892 -4.721016020237783e-07 7.342937546604908e-07 9.905783245945237 -2.538814989501969 -5.8014402238399425 172.1000032842032 114.94310201182039 -40.20286909026334 -173.1930338412316 3.435635597198746e-06 -1.1822207362115337e-06 15.546789826496513 0.0 -3.1805546814635176e-15 0.0 -127.23040935679664 -0.2991453545316443 157.48391573354874 -1.0015428697053021e-06 -3.0704717614586705e-06 -33.41301674291038 0.0 6.3611093629270335e-15 0.0
0.0009733604965731502 93.25633239746094 -0.0006082573090679944 17.809431409215055 0.25649557855102834 70.57455555674984 0.4125196458933998 13.02032710527048 0.34643649485693767 2.133075618033301 16.36891952546455 -0.16901515589608707 -4.472655020808071e-16 1.5902773407317584e-15 4.659015646675073e-15 -0.7618390757155881 -4.420195412219667 -0.2016314703824854 6.441915885234782 53.73540059577648 -3.010199291246864 -3.1805546814635168e-15 2.3854160110976368e-15 9.144094709207609e-15 2.200571735024218 23.38742235138572 -0.0914209181361698 -6.154304010626279e-07 -3.3656149167216644e-07 11.758120659344415 -1.7092250396111084 -5.794764374177303 171.50819230326152 114.61776435441263 -49.15494661418285 -176.8860490477667 3.5756282887524586e-06 -2.06874407684652e-06 11.872148597477302 -2.3854160110976376e-15 -1.3241718894150476e-31 6.3611093629270335e-15 -127.09912102920082 3.6497286145621692 156.57362589282502 3.844154169022872e-06 3.2186194562565297e-06 -35.81329768734243 0.0 0.0 0.0
0.0008174480171874166 93.25638580322266 -0.0007430167752318084 17.934231829145254 1.0349688933505228 69.70604287576668 -0.5665225254503942 14.26890145305577 0.5080593931799406 2.1818615975577966 15.866766092354549 -0.042507729871837 -7.951386703658794e-16 1.6896696745274936e-15 -4.124781852522999e-15 -1.729254929447163 -5.238013050368319 -0.287284001101496 6.796110359956759 49.76194761370598 -2.739006337978258 4.4139062980501586e-32 3.1805546814635176e-15 -1.5902773407317588e-15 0.3827386780984543 22.81228655100494 0.43634057498108164 -1.7631363693792104e-07 3.980236284598727e-07 13.590136747019946 -0.7004556504681212 -6.014328617851003 171.14160719864628 112.23366800051087 -48.26383220773146 179.60717784927877 -3.085418459807432e-07 -8.293319923072148e-06 10.903757461889498 -3.975693351829395e-16 3.1805546814635168e-15 -3.1805546814635168e-15 -129.0555583123773 2.9508149410606603 154.8246404964882 1.7958820988240217e-06 3.1525127742112922e-06 -39.37697451659882 -1.5902773407317584e-15 0.0 0.0
0.0007350679952651262 93.25634002685547 -0.0008098693797364831 17.960480325742605 1.6352091729012521 69.72252099011867 -0.8307838245849408 15.596287186545302 0.534120652166896 2.1698836482728137 15.583569187873413 -0.06251009650111705 -1.789062008323228e-15 -1.5902773407317582e-15 -9.69075254508415e-16 -2.6089087998200178 -6.200801081598719 -0.4000496109245208 7.997062196660811 44.4216411810147 -2.9840960382341812 1.1927080055488188e-15 -1.6552148617688095e-32 -1.5902773407317584e-15 -1.0215971414568454 21.714309942734282 0.8090927738665515 -1.3607684831139187e-08 -4.86662137963583e-07 14.659800946420496 0.2807244634930926 -4.715923974246234 170.6134493693298 109.25609834407885 -42.965456479013845 174.64680674470026 1.929725143093378e-06 -1.4782764548538628e-06 11.778028267602537 4.770832022195275e-15 3.1805546814635164e-15 -6.3611093629270335e-15 -130.1562204666019 1.7200332531751676 153.86428147155357 -2.8501979593905946e-06 -1.7617522744417424e-06 -41.39010092365037 1.7655625192200634e-31 6.3611093629270335e-15 -3.1805546814635168e-15
0.0007560712983831763 93.25625610351562 -0.0008067407179623842 17.802215896081236 2.1092871793733603 70.22081801339675 -0.5697867813579052 16.482183218264424 0.39501009848551655 1.488213576398368 15.448182043987618 -0.03492879482266157 -5.963540027744094e-16 -5.172546443027529e-33 9.93923337957349e-16 -2.9259039787294805 -6.60592280460638 -0.4247860482750653 5.813634377495502 39.26774170571289 -1.3268624964443365 -3.975693351829396e-16 -1.0689929315590228e-32 3.0811623476677818e-15 -1.431343565319098 20.534298385983888 0.7935161780082401 1.324311479501901e-08 -5.397422965442087e-08 14.798547626806062 1.7762995653198743 -4.154097412455494 169.72670439343705 106.05847183622345 -46.67863140612254 169.47390110804216 4.461408393419125e-06 -1.0180008968611143e-06 11.797125962653597 -7.951386703658792e-15 0.0 0.0 -129.44597960727995 3.7819512896909955 153.17529067638964 2.0516214609505403e-06 1.3216108521809116e-07 -42.082510922081234 0.0 6.361109362927033e-15 0.0
